<?xml version="1.0" encoding="UTF-8"?>
<svg width="2768px" height="681px" viewBox="0 0 2768 681" version="1.1" xmlns="http://www.w3.org/2000/svg" xmlns:xlink="http://www.w3.org/1999/xlink">
    <!-- Generator: Sketch 42 (36781) - http://www.bohemiancoding.com/sketch -->
    <title>Group 3</title>
    <desc>Created with Sketch.</desc>
    <defs>
        <circle id="path-1" cx="375.5" cy="375.5" r="375.5"></circle>
    </defs>
    <g id="Page-1" stroke="none" stroke-width="1" fill="none" fill-rule="evenodd">
        <g id="Group-3" transform="translate(-114.000000, -68.000000)">
            <path d="M1074.77654,310.655715 C1074.77654,360.499038 1060.07807,398.999885 1030.68068,426.159411 C1001.28329,453.318936 959.527419,466.898495 905.41181,466.898495 L871.538864,466.898495 L871.538864,614.90191 L751,614.90191 L751,168.755533 L905.41181,168.755533 C961.765282,168.755533 1004.08061,181.063598 1032.35907,205.680097 C1060.63753,230.296595 1074.77654,265.288118 1074.77654,310.655715 Z M871.538864,368.636434 L893.510505,368.636434 C911.616855,368.636434 926.01017,363.550457 936.690882,353.37835 C947.371595,343.206243 952.711871,329.168946 952.711871,311.266038 C952.711871,281.156602 936.029866,266.102109 902.665355,266.102109 L871.538864,266.102109 L871.538864,368.636434 Z M1419.78556,441.264914 C1419.78556,497.821828 1404.57848,541.91725 1374.16388,573.552502 C1343.74928,605.187755 1301.17966,621.005143 1246.45372,621.005143 C1193.96565,621.005143 1152.20978,604.831736 1121.18485,572.484436 C1090.15993,540.137136 1074.64769,496.397733 1074.64769,441.264914 C1074.64769,384.911442 1089.85477,341.121179 1120.26937,309.89281 C1150.68397,278.664442 1193.35531,263.050493 1248.28469,263.050493 C1282.25953,263.050493 1312.26679,270.27258 1338.30739,284.716972 C1364.34798,299.161364 1384.43759,319.861291 1398.57682,346.817374 C1412.71605,373.773457 1419.78556,405.255655 1419.78556,441.264914 Z M1195.79688,441.264914 C1195.79688,470.967466 1199.76394,493.600064 1207.69819,509.163388 C1215.63243,524.726711 1228.95769,532.508256 1247.67437,532.508256 C1266.1876,532.508256 1279.25856,524.726711 1286.88764,509.163388 C1294.51672,493.600064 1298.33121,470.967466 1298.33121,441.264914 C1298.33121,411.765804 1294.46586,389.489224 1286.73506,374.434506 C1279.00426,359.379788 1265.78072,351.852542 1247.06404,351.852542 C1228.75425,351.852542 1215.63243,359.328928 1207.69819,374.281925 C1199.76394,389.234922 1195.79688,411.562362 1195.79688,441.264914 Z M1545.99364,621.005143 C1521.37714,621.005143 1499.86346,613.986495 1481.45195,599.948988 C1463.04043,585.91148 1448.7997,565.262413 1438.72931,538.001166 C1428.65893,510.73992 1423.62381,478.901703 1423.62381,442.485561 C1423.62381,386.335531 1434.91468,342.392688 1457.49676,310.655715 C1480.07883,278.918741 1511.10329,263.050493 1550.57107,263.050493 C1569.89807,263.050493 1586.83438,266.915835 1601.38049,274.646636 C1615.9266,282.377438 1629.201,295.397539 1641.20409,313.707331 L1643.64538,313.707331 C1639.77998,286.649527 1637.84731,259.592129 1637.84731,232.534325 L1637.84731,140.070335 L1758.08101,140.070335 L1758.08101,614.90191 L1668.05832,614.90191 L1642.42473,571.26379 L1637.84731,571.26379 C1617.29965,604.424858 1586.68207,621.005143 1545.99364,621.005143 Z M1594.81951,526.710184 C1613.94307,526.710184 1627.42091,520.708731 1635.25343,508.705645 C1643.08596,496.702559 1647.30732,478.189602 1647.91764,453.166219 L1647.91764,443.706207 C1647.91764,413.189887 1643.5437,391.472764 1634.79569,378.554189 C1626.04768,365.635613 1612.31554,359.176422 1593.59887,359.176422 C1577.93382,359.176422 1565.77834,366.551089 1557.13204,381.300644 C1548.48575,396.050199 1544.16267,417.055284 1544.16267,444.316531 C1544.16267,471.170893 1548.53661,491.616521 1557.28463,505.654028 C1566.03264,519.691536 1578.54414,526.710184 1594.81951,526.710184 Z M1911.14333,614.90191 L1791.82511,614.90191 L1791.82511,269.153726 L1911.14333,269.153726 L1911.14333,614.90191 Z M1788.77349,183.098132 C1788.77349,165.195224 1793.75775,151.869964 1803.72642,143.121952 C1813.69508,134.37394 1829.76677,130 1851.94196,130 C1874.11715,130 1890.29056,134.47566 1900.46267,143.427114 C1910.63477,152.378568 1915.72075,165.602109 1915.72075,183.098132 C1915.72075,218.09018 1894.46137,235.585941 1851.94196,235.585941 C1809.82944,235.585941 1788.77349,218.09018 1788.77349,183.098132 Z M2170.70707,614.90191 L2147.81994,569.127658 L2145.37865,569.127658 C2129.30672,589.064987 2112.92987,602.695406 2096.24762,610.019323 C2079.56536,617.34324 2058.00082,621.005143 2031.55334,621.005143 C1999.0026,621.005143 1973.36928,611.240067 1954.6526,591.709622 C1935.93592,572.179177 1926.57772,544.7149 1926.57772,509.315968 C1926.57772,472.492942 1939.39439,445.079525 1965.0281,427.074896 C1990.66181,409.070267 2027.78944,398.949172 2076.41211,396.711308 L2134.08767,394.880338 L2134.08767,389.997752 C2134.08767,361.515852 2120.05037,347.275116 2091.97536,347.275116 C2066.74853,347.275116 2034.70687,355.819558 1995.84943,372.908697 L1961.36616,294.176984 C2001.6477,273.425886 2052.50747,263.050493 2113.947,263.050493 C2158.29738,263.050493 2192.62773,274.036203 2216.93906,296.007954 C2241.2504,317.979705 2253.40588,348.699007 2253.40588,388.166781 L2253.40588,614.90191 L2170.70707,614.90191 Z M2082.21018,536.78052 C2096.65457,536.78052 2109.0135,532.20314 2119.28733,523.048244 C2129.56115,513.893348 2134.69799,501.992161 2134.69799,487.344328 L2134.69799,460.4901 L2107.23344,461.710746 C2067.96911,463.134841 2048.33724,477.579016 2048.33724,505.043705 C2048.33724,526.201687 2059.6281,536.78052 2082.21018,536.78052 Z M2503.50961,614.90191 L2503.50961,426.311991 C2503.50961,403.32303 2500.20373,385.979848 2493.59186,374.281925 C2486.97999,362.584002 2476.3503,356.735128 2461.70246,356.735128 C2441.56169,356.735128 2427.0158,364.770972 2418.06434,380.842901 C2409.11289,396.91483 2404.63723,424.480826 2404.63723,463.541716 L2404.63723,614.90191 L2285.31901,614.90191 L2285.31901,269.153726 L2375.34171,269.153726 L2390.29463,311.876361 L2397.31335,311.876361 C2407.48546,295.60099 2421.57361,283.394645 2439.57824,275.25696 C2457.58287,267.119274 2478.2828,263.050493 2501.67864,263.050493 C2539.92577,263.050493 2569.67873,274.137923 2590.93844,296.313116 C2612.19814,318.488309 2622.82783,349.716208 2622.82783,389.997752 L2622.82783,614.90191 L2503.50961,614.90191 Z M2824.10569,526.710184 C2840.17762,526.710184 2859.40261,522.743122 2881.78125,514.808879 L2881.78125,601.779958 C2865.70932,608.69699 2850.40053,613.630388 2835.85442,616.580299 C2821.3083,619.53021 2804.27028,621.005143 2784.73984,621.005143 C2744.66173,621.005143 2715.77338,611.189208 2698.07392,591.557041 C2680.37445,571.924875 2671.52485,541.765031 2671.52485,501.076603 L2671.52485,358.566098 L2629.7177,358.566098 L2629.7177,310.045391 L2682.81583,272.510505 L2713.63716,199.882025 L2791.75855,199.882025 L2791.75855,269.153726 L2876.5935,269.153726 L2876.5935,358.566098 L2791.75855,358.566098 L2791.75855,493.142399 C2791.75855,515.521035 2802.54083,526.710184 2824.10569,526.710184 Z" id="Podiant" fill="#000000"></path>
            <g id="Group-2">
                <mask id="mask-2" fill="white">
                    <use xlink:href="#path-1"></use>
                </mask>
                <g id="Oval"></g>
                <g id="Group" mask="url(#mask-2)" fill="#000000">
                    <g transform="translate(114.000000, 68.000000)" id="Shape">
                        <path d="M306,728.661359 C301.9,726.961359 297,725.161359 287.5,721.861359 C275.9,717.761359 265,713.861359 262.5,712.761359 C258.2,710.961359 243.4,705.461359 242.5,705.261359 C241.9,705.161359 239.2,704.161359 236.5,703.061359 C233.7,701.961359 225.4,698.661359 218,695.861359 C201.5,689.461359 188.1,684.061359 185.8,682.761359 C184.8,682.261359 183.6,681.861359 183,681.861359 C182.5,681.861359 179.5,680.661359 176.3,679.261359 C173.1,677.861359 169.6,676.261359 168.5,675.761359 C145.3,665.961359 117.8,652.561359 108.2,646.461359 C101.7,642.361359 99.1,637.361359 97.4,625.361359 C97.1,623.761359 96.7,621.261359 96.4,619.861359 C96.1,618.461359 95.6,615.761359 95.4,613.861359 C94.9,610.261359 94.3,606.761359 94,605.861359 C93.9,605.561359 93.7,604.961359 93.6,604.361359 C93.5,603.861359 93,600.861359 92.5,597.861359 C92,594.861359 91.6,592.161359 91.5,591.861359 C91.4,591.561359 91,589.161359 90.5,586.361359 C89.5,579.761359 89.2,577.961359 88.4,574.561359 C87.6,570.661359 87,567.261359 86.4,561.861359 C86.1,559.361359 85.6,556.661359 85.3,555.861359 C85,555.061359 84.5,552.561359 84.3,550.361359 C84.1,548.161359 83.7,545.661359 83.3,544.861359 C83,544.061359 82.6,542.261359 82.5,540.861359 C81.9,535.561359 77.8,513.361359 77.3,512.861359 C77.1,512.561359 76.5,512.361359 76.2,512.361359 C72.9,512.261359 41.8,497.761359 39,494.861359 C38.7,494.561359 37.2,493.661359 35.6,492.861359 C34,492.061359 30.8,489.561359 28.5,487.261359 C24.3,483.161359 22.8,479.361359 21.5,469.361359 C21.2,467.761359 20.8,464.361359 20.4,461.861359 C20.1,459.361359 19.7,455.761359 19.6,453.861359 C19.4,451.961359 19,448.761359 18.7,446.861359 C18.1,443.761359 17.6,439.161359 16.4,427.861359 C16.2,425.961359 15.8,423.061359 15.6,421.361359 C15.4,419.761359 14.8,415.461359 14.4,411.861359 C13.5,404.461359 13.4,403.561359 13.1,402.861359 C12.9,402.361359 12.5,399.161359 11.5,387.861359 C11.1,384.361359 10.7,381.161359 10.4,380.761359 C10.2,380.361359 9.7,376.361359 9.4,371.961359 C8.8,364.461359 9,363.361359 11.5,358.561359 C14,353.561359 15.2,352.661359 43.7,333.861359 C59.9,323.161359 73.7,313.861359 74.4,313.361359 C75,312.761359 77.8,310.861359 80.7,309.061359 C83.5,307.261359 86.4,305.161359 87,304.361359 C87.9,303.261359 85.8,298.361359 77.5,281.661359 C71.7,269.961359 65.1,257.261359 63,253.361359 C60.8,249.561359 58.1,244.561359 57,242.361359 C55.9,240.161359 53.2,235.461359 51,231.961359 C48.8,228.561359 47,225.261359 47,224.761359 C47,224.261359 46.6,223.861359 46,223.861359 C45.5,223.861359 45,223.361359 45,222.861359 C45,221.061359 21.4,186.061359 18.4,183.361359 C17.8,182.861359 16.7,181.461359 15.9,180.261359 C14.3,177.861359 4.4,166.361359 1.7,163.861359 C0.1,162.361359 -1.19348975e-15,160.161359 0.2,140.261359 L0.5,118.461359 L16.1,133.861359 C24.6,142.361359 35.2,153.861359 39.6,159.361359 C61.9,187.261359 84,223.261359 106.5,268.461359 L118.2,291.961359 L124.1,281.361359 C132.4,266.361359 144.8,248.561359 155.6,235.861359 C160.7,229.961359 165.4,224.761359 166,224.361359 C167.2,223.561359 166.5,222.261359 154.3,203.461359 C118.7,148.661359 72.9,100.661359 31.8,74.8613589 C27,71.8613589 23.2,68.9613589 23.3,68.3613589 C23.9,66.6613589 46.7,49.8613589 61.5,40.1613589 C82.3,26.7613589 113.9,11.3613589 137.6,3.26135889 C149,-0.638641109 148.4,-0.738641109 157,5.26135889 C159.5,6.96135889 161.7,8.56135889 162,8.86135889 C162.3,9.16135889 165,10.9613589 168,12.9613589 C173.8,16.7613589 197.1,33.9613589 203,38.8613589 C204.9,40.4613589 210.6,44.9613589 215.5,49.0613589 C220.5,53.0613589 225,56.7613589 225.6,57.3613589 C226.2,57.8613589 229.3,60.6613589 232.5,63.3613589 C243.6,72.8613589 250.5,79.3613589 268,96.8613589 C290.6,119.461359 299.5,129.261359 316.1,149.761359 C318.5,152.761359 321.2,155.361359 322,155.461359 C322.8,155.661359 325.2,156.161359 327.2,156.661359 C329.2,157.261359 331.1,157.361359 331.4,157.061359 C331.8,156.761359 332,156.961359 332,157.461359 C332,157.961359 333.2,158.561359 334.6,158.661359 C340,159.061359 346.5,163.061359 353,169.661359 C360.7,177.661359 367.8,185.461359 374,192.861359 C376.5,195.761359 379.2,198.861359 380,199.761359 C380.8,200.661359 384.9,205.461359 389,210.361359 C393.1,215.361359 397,219.961359 397.7,220.661359 C398.4,221.361359 399,222.261359 399,222.661359 C399,223.061359 400.3,224.761359 401.8,226.361359 C404.5,229.361359 415.6,243.661359 417.5,246.661359 C418.1,247.561359 419.3,249.161359 420.3,250.261359 C421.3,251.461359 422.9,253.561359 423.8,255.161359 C424.7,256.661359 425.8,257.861359 426.2,257.861359 C426.6,257.861359 427,258.361359 427,258.961359 C427,260.061359 433,268.161359 434.3,268.661359 C434.7,268.861359 435,269.561359 435,270.361359 C435,271.061359 435.6,272.161359 436.3,272.761359 C437.1,273.361359 440.3,277.761359 443.6,282.561359 C446.8,287.461359 449.9,291.861359 450.3,292.361359 C451.7,294.061359 468,319.161359 473.5,328.061359 C474,328.961359 477.6,334.961359 481.4,341.361359 C485.2,347.761359 488.7,353.161359 489.2,353.461359 C489.6,353.761359 490,354.861359 490,355.861359 C490,356.861359 490.4,357.861359 490.8,358.061359 C491.6,358.361359 498.3,370.061359 502,377.361359 C502.8,379.061359 503.7,380.561359 504,380.861359 C505.7,382.561359 522.1,417.161359 522.9,420.861359 C524.3,427.261359 523.1,431.761359 510.7,466.361359 C507.4,475.761359 503.8,484.861359 502.8,486.661359 C501.8,488.461359 501,490.361359 501,490.861359 C501,491.361359 499.9,494.161359 498.6,497.061359 C497.3,499.961359 495.5,504.061359 494.6,506.161359 C490.8,515.561359 485.8,525.961359 475.4,546.361359 C462.1,572.761359 457.9,580.061359 441.2,606.561359 C438.8,610.261359 436.4,614.261359 435.7,615.361359 C435,616.461359 434.3,617.561359 434,617.861359 C433.7,618.161359 430.8,622.161359 427.5,626.861359 C424.3,631.561359 421.3,635.561359 420.8,635.661359 C420.4,635.861359 420,636.461359 420,636.961359 C420,637.661359 407.8,654.261359 406,655.861359 C405.7,656.161359 403.7,658.661359 401.5,661.361359 C399.3,664.161359 397.1,666.861359 396.5,667.461359 C396,668.161359 392.8,671.761359 389.5,675.461359 C381.1,685.161359 362.9,703.261359 354,710.961359 C349.9,714.461359 346.3,717.561359 346,717.861359 C345.7,718.161359 343.5,720.061359 341,722.061359 C337.1,725.061359 335.1,725.861359 327,727.161359 C313.1,729.561359 308.8,729.861359 306,728.661359 Z M331.5,689.461359 C359.2,665.461359 383.1,637.661359 409.1,599.161359 C416.2,588.561359 422,579.661359 422,579.561359 C422,579.361359 425.7,572.861359 430.1,565.261359 C443.2,543.061359 459.5,510.261359 469.7,485.861359 C479.1,463.361359 490.6,432.161359 489.8,431.361359 C489.3,430.861359 478,429.261359 468,428.361359 C464.4,428.061359 460.8,427.661359 460,427.361359 C459.2,427.161359 456.3,426.761359 453.5,426.361359 C450.8,426.061359 447.6,425.561359 446.5,425.261359 C445.4,425.061359 442.9,424.661359 441,424.461359 C439.1,424.261359 433.5,423.261359 428.5,422.361359 C423.6,421.461359 418.6,420.461359 417.5,420.261359 C407.1,418.361359 370.3,408.561359 371.7,408.161359 C372.2,407.961359 377.7,408.861359 383.9,410.161359 C390,411.461359 395.3,412.261359 395.5,411.961359 C395.7,411.661359 392.4,399.861359 388.3,385.861359 C384.2,371.861359 380.5,359.061359 380,357.361359 C379.6,355.761359 378.5,351.861359 377.7,348.861359 C376.8,345.861359 375.5,341.561359 374.8,339.361359 L373.5,335.461359 L355.3,330.161359 C345.3,327.261359 330.3,322.161359 322,318.861359 L306.9,312.861359 L283.7,331.161359 C270.9,341.261359 243.4,362.661359 222.5,378.761359 C201.6,394.861359 183.2,409.161359 181.5,410.461359 C179.9,411.661359 162.1,425.161359 142,440.461359 C121.9,455.661359 104.7,468.861359 103.8,469.761359 C102.2,471.261359 102.3,472.061359 104.5,482.861359 C105.8,489.161359 107.1,495.761359 107.3,497.361359 C107.6,499.061359 109,505.761359 110.3,512.361359 C111.7,518.961359 113.1,525.761359 113.3,527.361359 C113.6,529.061359 114.7,534.661359 115.8,539.861359 C117.8,549.461359 118.1,551.261359 120,567.361359 C121.3,578.661359 121.6,580.461359 123.4,590.361359 C124.2,594.761359 125.2,600.361359 125.5,602.861359 C125.9,605.261359 126.4,607.661359 126.7,608.161359 C126.9,608.561359 129.5,606.961359 132.3,604.661359 C139,599.061359 137.6,600.261359 159.5,582.761359 C170,574.461359 179.6,566.661359 181,565.461359 C182.4,564.361359 185.8,561.561359 188.5,559.361359 C191.3,557.161359 194.4,554.661359 195.5,553.661359 C196.6,552.761359 202.2,548.161359 208,543.361359 C213.8,538.561359 220.9,532.561359 223.9,529.961359 C233.3,522.061359 244.5,512.461359 245.6,511.361359 C246.2,510.861359 249.5,507.861359 253,504.861359 C267.8,492.161359 281.8,479.161359 293.6,467.161359 C303.7,456.961359 308,453.461359 301.8,460.561359 C291.4,472.461359 254.4,509.861359 238.8,524.261359 C235.9,527.061359 230.3,532.161359 226.5,535.761359 C202.6,558.061359 187,572.161359 151.7,603.161359 C131.9,620.561359 130.1,622.461359 131.7,623.661359 C136.1,626.861359 194.9,653.861359 197.6,653.861359 C197.8,653.861359 199.9,654.761359 202.3,655.761359 C204.6,656.861359 213.7,660.461359 222.5,663.861359 C231.3,667.361359 242.6,671.661359 247.5,673.661359 C257.5,677.561359 318.2,699.761359 319,699.861359 C319.3,699.861359 324.9,695.161359 331.5,689.461359 Z M90.9,480.661359 C89.8,476.961359 88.7,470.461359 88.6,467.261359 C88.5,465.561359 98,457.861359 132,431.961359 C175,399.161359 192.8,385.561359 195.8,383.161359 C197.2,381.961359 196.8,380.061359 192.5,365.661359 C187.4,348.561359 185.5,343.861359 174.5,321.561359 C169.2,310.661359 167.4,307.861359 166.1,308.361359 C165.2,308.661359 156,313.861359 145.5,319.761359 C135.1,325.661359 107.7,341.261359 84.8,354.261359 C61.8,367.261359 42.9,378.261359 42.7,378.661359 C42.5,379.061359 44.4,396.061359 47,416.361359 C49.6,436.761359 51.6,453.661359 51.3,454.161359 C50.2,456.061359 53,454.361359 61.4,447.961359 C74.3,438.261359 102.8,416.661359 143.7,385.561359 C163,370.861359 179.1,358.861359 179.4,358.861359 C179.7,358.861359 174.9,363.261359 168.7,368.561359 C162.6,373.861359 157.3,378.461359 157,378.761359 C156.7,379.161359 154.9,380.661359 153,382.261359 C150.1,384.661359 139.4,393.961359 134.6,398.361359 C134,398.961359 131.9,400.661359 130,402.261359 C128.1,403.761359 124.7,406.761359 122.5,408.761359 C120.3,410.761359 113.9,416.261359 108.4,421.061359 C102.8,425.861359 97.6,430.361359 96.9,431.061359 C96.1,431.761359 91,436.261359 85.5,440.961359 C80,445.761359 74.5,450.461359 73.4,451.461359 C68.2,456.061359 59.7,463.361359 57.3,465.161359 C54.8,467.161359 54.8,467.261359 56.6,468.661359 C62,472.661359 86.4,483.661359 90.2,483.861359 C91.6,483.861359 91.7,483.361359 90.9,480.661359 Z" transform="translate(261.741726, 364.930679) scale(1, -1) translate(-261.741726, -364.930679) "></path>
                    </g>
                </g>
            </g>
        </g>
    </g>
</svg>